Coordinates
version=1
nRows=15
nColumns=34
inDegrees=no

Units are S.I. units (second, meters, Newtons, ...)
If the header above contains a line with 'inDegrees', this indicates whether rotational values are in degrees (yes) or radians (no).

endheader
time	pelvis_tilt	pelvis_list	pelvis_rotation	pelvis_tx	pelvis_ty	pelvis_tz	hip_flexion_r	hip_adduction_r	hip_rotation_r	knee_angle_r	ankle_angle_r	subtalar_angle_r	mtp_angle_r	hip_flexion_l	hip_adduction_l	hip_rotation_l	knee_angle_l	ankle_angle_l	subtalar_angle_l	mtp_angle_l	lumbar_extension	lumbar_bending	lumbar_rotation	arm_flex_r	arm_add_r	arm_rot_r	elbow_flex_r	pro_sup_r	arm_flex_l	arm_add_l	arm_rot_l	elbow_flex_l	pro_sup_l
0	0.112464	0.0495079	0.0587007	-0.154338	0.993739	-0.292854	0.350967	-0.0422608	-0.161789	0.164571	-0.0669475	0.00465066	-0.0424522	-0.465551	-0.0285034	-0.364164	0.197318	0.349695	0.545208	-0.0396477	-0.446781	-0.120469	-0.104085	-0.0515214	-0.191875	-0.12942	0.744271	1.89092	0.190469	-0.345785	0.142365	0.922956	1.90194
0.01	0.123178	0.0324098	0.0621242	-0.13993	0.998869	-0.293716	0.343337	-0.0292901	-0.165329	0.196704	-0.0880105	-0.0202083	-0.0424772	-0.481112	-0.0521891	-0.367722	0.219101	0.340838	0.536814	-0.039656	-0.454796	-0.0876075	-0.0954755	-0.0472562	-0.195018	-0.13824	0.734098	1.89123	0.175784	-0.334941	0.148448	0.910363	1.90555
0.02	0.131612	0.0152998	0.0657755	-0.125689	1.00344	-0.294456	0.336828	-0.016082	-0.169342	0.2265	-0.104306	-0.0425573	-0.0425023	-0.490059	-0.0766228	-0.369217	0.246705	0.326726	0.522881	-0.0396644	-0.460416	-0.0554007	-0.0877523	-0.043234	-0.197626	-0.147878	0.724877	1.89141	0.160283	-0.324325	0.153967	0.897629	1.91007
0.03	0.137755	-0.00181876	0.0696589	-0.111623	1.00747	-0.295078	0.331429	-0.00263838	-0.173829	0.253905	-0.115877	-0.062409	-0.0425274	-0.492353	-0.101804	-0.368638	0.28015	0.307348	0.503427	-0.0396727	-0.463628	-0.0238605	-0.0809284	-0.0394528	-0.199696	-0.158317	0.716618	1.89144	0.14398	-0.313947	0.158932	0.884755	1.91546
0.04	0.141587	-0.0189338	0.0737925	-0.0977408	1.011	-0.295585	0.32711	0.0110329	-0.178796	0.278765	-0.122875	-0.0798082	-0.0425525	-0.487899	-0.127727	-0.365953	0.319466	0.282683	0.478518	-0.039681	-0.464409	0.00698127	-0.0750428	-0.0359052	-0.201224	-0.169499	0.709347	1.89134	0.126919	-0.303837	0.163379	0.871752	1.92155
0.05	0.143092	-0.036024	0.0782212	-0.0840578	1.01404	-0.295979	0.323814	0.0249116	-0.184264	0.300836	-0.125609	-0.094852	-0.0425775	-0.476569	-0.154369	-0.361099	0.364634	0.252723	0.44832	-0.0396894	-0.462733	0.0370746	-0.07017	-0.0325745	-0.202211	-0.181295	0.703106	1.89109	0.109192	-0.294056	0.167381	0.85864	1.92806
0.06	0.142288	-0.0530604	0.0830254	-0.0705906	1.01663	-0.296266	0.32146	0.0389584	-0.190265	0.31984	-0.124556	-0.107704	-0.0426026	-0.45828	-0.181671	-0.353976	0.415496	0.217518	0.41313	-0.0396977	-0.4586	0.0663591	-0.06642	-0.029431	-0.202673	-0.193484	0.697936	1.8907	0.0909503	-0.284693	0.17105	0.84546	1.93455
0.07	0.139255	-0.0699995	0.0883175	-0.0573564	1.01879	-0.296457	0.319941	0.0531062	-0.196845	0.335546	-0.120334	-0.118591	-0.0426277	-0.433066	-0.209511	-0.344461	0.471671	0.177233	0.373398	-0.0397061	-0.452073	0.0947702	-0.0639233	-0.0264291	-0.202649	-0.205752	0.693865	1.89021	0.0724039	-0.275856	0.17453	0.832278	1.94058
0.08	0.134161	-0.0867305	0.0942114	-0.0443797	1.02057	-0.296567	0.319147	0.0672485	-0.20403	0.347867	-0.113633	-0.127786	-0.0426528	-0.40115	-0.237667	-0.332435	0.532494	0.132228	0.329728	-0.0397144	-0.443297	0.122239	-0.0627986	-0.0235092	-0.202206	-0.217716	0.690894	1.88965	0.0538098	-0.267667	0.177981	0.819181	1.94571
0.09	0.127261	-0.103103	0.100782	-0.0316873	1.022	-0.296614	0.318968	0.0812185	-0.211807	0.356907	-0.105139	-0.13557	-0.0426779	-0.36299	-0.265781	-0.317826	0.597004	0.0831478	0.282869	-0.0397227	-0.432517	0.148658	-0.0631194	-0.0206038	-0.201432	-0.228957	0.688988	1.8891	0.0354573	-0.260245	0.181561	0.806284	1.94966
0.1	0.118899	-0.118965	0.10805	-0.0192861	1.02313	-0.29661	0.31928	0.0947939	-0.220099	0.36296	-0.0954744	-0.14219	-0.042703	-0.319304	-0.29334	-0.300674	0.663985	0.0310206	0.233731	-0.0397311	-0.420096	0.173838	-0.0648654	-0.0176425	-0.200436	-0.239069	0.68808	1.88863	0.0176422	-0.253694	0.18541	0.793717	1.95236
0.11	0.1095	-0.134125	0.115946	-0.0072019	1.02403	-0.296568	0.319901	0.107727	-0.228763	0.36647	-0.0851422	-0.147818	-0.0427281	-0.271081	-0.319718	-0.281179	0.732041	-0.0226769	0.183394	-0.0397394	-0.406513	0.197538	-0.0678931	-0.0145629	-0.199336	-0.2477	0.688088	1.88834	0.0006407	-0.24809	0.189638	0.781625	1.95388
0.12	0.0995511	-0.148359	0.124298	0.00456343	1.02475	-0.296494	0.320563	0.119777	-0.237594	0.367945	-0.0745108	-0.152519	-0.0427532	-0.219549	-0.344236	-0.259727	0.799704	-0.0760057	0.133122	-0.0397478	-0.392354	0.21947	-0.0719251	-0.0113214	-0.198245	-0.254582	0.688925	1.88824	-0.015313	-0.243474	0.194308	0.770157	1.95444
0.13	0.0895692	-0.161426	0.132837	0.0160175	1.02537	-0.296386	0.320909	0.130735	-0.24634	0.367881	-0.0638126	-0.156258	-0.0427783	-0.166097	-0.366233	-0.236884	0.865555	-0.126647	0.0843491	-0.0397561	-0.378268	0.23933	-0.0765627	-0.00790437	-0.197263	-0.259552	0.690522	1.88825	-0.0300433	-0.239849	0.199434	0.75946	1.9543
0.14	0.0800579	-0.173084	0.141228	0.0271766	1.02597	-0.296234	0.320503	0.140447	-0.254723	0.366702	-0.0531603	-0.158917	-0.0428034	-0.112174	-0.385138	-0.213348	0.92832	-0.172098	0.03862	-0.0397644	-0.364912	0.25681	-0.081323	-0.00433611	-0.196461	-0.262571	0.692836	1.88824	-0.0434419	-0.237182	0.20497	0.749663	1.95374
